<svg width="24" height="24" viewBox="0 0 24 24" fill="none" xmlns="http://www.w3.org/2000/svg">
<mask id="mask0_167_317" style="mask-type:alpha" maskUnits="userSpaceOnUse" x="0" y="0" width="24" height="24">
<rect width="24" height="24" fill="#D9D9D9"/>
</mask>
<g mask="url(#mask0_167_317)">
<path d="M20.8917 19C18.6926 19 16.5199 18.5206 14.3736 17.5618C12.2273 16.603 10.2745 15.244 8.51528 13.4847C6.75602 11.7255 5.39699 9.77269 4.43819 7.62639C3.4794 5.48009 3 3.30741 3 1.10833C3 0.791667 3.10556 0.527778 3.31667 0.316667C3.52778 0.105556 3.79167 0 4.10833 0H8.38333C8.62963 0 8.84954 0.0835648 9.04306 0.250694C9.23657 0.417824 9.35093 0.615741 9.38611 0.844444L10.0722 4.53889C10.1074 4.82037 10.0986 5.05787 10.0458 5.25139C9.99306 5.44491 9.8963 5.61204 9.75556 5.75278L7.19583 8.33889C7.54769 8.98982 7.96551 9.61875 8.44931 10.2257C8.9331 10.8326 9.46528 11.4176 10.0458 11.9806C10.5912 12.5259 11.163 13.0317 11.7611 13.4979C12.3593 13.9641 12.9926 14.3907 13.6611 14.7778L16.1417 12.2972C16.3 12.1389 16.5067 12.0201 16.7618 11.941C17.0169 11.8618 17.2676 11.8398 17.5139 11.875L21.1556 12.6139C21.4019 12.6843 21.6042 12.8118 21.7625 12.9965C21.9208 13.1812 22 13.388 22 13.6167V17.8917C22 18.2083 21.8944 18.4722 21.6833 18.6833C21.4722 18.8944 21.2083 19 20.8917 19Z" fill="#1D183B"/>
</g>
</svg>
