<svg width="20" height="20" viewBox="0 0 20 20" fill="none" xmlns="http://www.w3.org/2000/svg">
<mask id="mask0_2001_44" style="mask-type:alpha" maskUnits="userSpaceOnUse" x="0" y="0" width="20" height="20">
<circle cx="10" cy="10" r="10" fill="#D9D9D9"/>
</mask>
<g mask="url(#mask0_2001_44)">
<path fill-rule="evenodd" clip-rule="evenodd" d="M-3 0H23V20H-3V0Z" fill="#E30A17"/>
<path fill-rule="evenodd" clip-rule="evenodd" d="M13.5344 10.3122C13.5344 13.0706 11.3163 15.3081 8.57814 15.3081C5.84001 15.3081 3.62189 13.0706 3.62189 10.3081C3.62189 7.54557 5.84001 5.31641 8.57814 5.31641C11.3163 5.31641 13.5344 7.55391 13.5344 10.3122Z" fill="white"/>
<path fill-rule="evenodd" clip-rule="evenodd" d="M13.7781 10.3122C13.7781 12.5206 12.0069 14.3081 9.81717 14.3081C7.62749 14.3081 5.85217 12.5164 5.85217 10.3081C5.85217 8.09974 7.62749 6.31641 9.81717 6.31641C12.0069 6.31641 13.7822 8.10391 13.7822 10.3122H13.7781Z" fill="#E30A17"/>
<path fill-rule="evenodd" clip-rule="evenodd" d="M14.4972 7.97878L14.4566 9.82461L12.7787 10.2913L14.4362 10.8954L14.3956 12.5913L15.4722 11.2663L17.1053 11.8496L16.1628 10.4288L17.3125 9.01628L15.5453 9.51628L14.4972 7.97461V7.97878Z" fill="white"/>
<path d="M-3 0H23V20H-3V0Z" fill="#012169"/>
<path d="M0.046875 0L9.95937 7.54167L19.8312 0H23V2.58333L13.25 10.0417L23 17.4583V20H19.75L10 12.5417L0.290625 20H-3V17.5L6.70937 10.0833L-3 2.66667V0H0.046875Z" fill="white"/>
<path d="M14.225 11.7083L23 18.3333V20L11.9906 11.7083H14.225ZM6.75 12.5417L6.99375 14L-0.80625 20H-3L6.75 12.5417ZM23 0V0.125L12.8844 7.95833L12.9656 6.125L20.9688 0H23ZM-3 0L6.70937 7.33333H4.27187L-3 1.75V0Z" fill="#C8102E"/>
<path d="M6.79062 0V20H13.2906V0H6.79062ZM-3 6.66667V13.3333H23V6.66667H-3Z" fill="white"/>
<path d="M-3 8.04167V12.0417H23V8.04167H-3ZM8.09062 0V20H11.9906V0H8.09062Z" fill="#C8102E"/>
</g>
</svg>
