<svg width="24" height="24" viewBox="0 0 24 24" fill="none" xmlns="http://www.w3.org/2000/svg">
<mask id="mask0_167_293" style="mask-type:alpha" maskUnits="userSpaceOnUse" x="0" y="0" width="24" height="24">
<rect width="24" height="24" fill="#D9D9D9"/>
</mask>
<g mask="url(#mask0_167_293)">
<path d="M12.5 12C13.1531 12 13.7122 11.765 14.1773 11.295C14.6424 10.825 14.875 10.26 14.875 9.6C14.875 8.94 14.6424 8.375 14.1773 7.905C13.7122 7.435 13.1531 7.2 12.5 7.2C11.8469 7.2 11.2878 7.435 10.8227 7.905C10.3576 8.375 10.125 8.94 10.125 9.6C10.125 10.26 10.3576 10.825 10.8227 11.295C11.2878 11.765 11.8469 12 12.5 12ZM12.5 24C9.31354 21.26 6.93359 18.715 5.36016 16.365C3.78672 14.015 3 11.84 3 9.84C3 6.84 3.95495 4.45 5.86484 2.67C7.77474 0.89 9.98646 0 12.5 0C15.0135 0 17.2253 0.89 19.1352 2.67C21.0451 4.45 22 6.84 22 9.84C22 11.84 21.2133 14.015 19.6398 16.365C18.0664 18.715 15.6865 21.26 12.5 24Z" fill="#1D183B"/>
</g>
</svg>
