<svg width="176" height="36" viewBox="0 0 176 36" fill="none" xmlns="http://www.w3.org/2000/svg">
<path d="M13.4268 23.1496V0L2.63804 10.8279C0.946545 12.5203 0 14.8085 0 17.183V22.6919C0 30.7136 9.79843 34.7891 15.6354 29.1852L21.7528 23.305L13.4268 23.1496Z" fill="url(#paint0_linear_2001_22)"/>
<path d="M29.0989 12.544V35.9998L40.4223 24.4863C41.7632 23.1215 42.5169 21.2842 42.5169 19.3682V8.56329C42.5169 2.09785 34.7168 -1.18299 30.0805 3.33144L20.7641 12.404L29.0989 12.544Z" fill="url(#paint1_linear_2001_22)"/>
<path d="M65.0727 11.0488V24.175C65.0727 24.5561 65.2264 24.8752 65.5423 25.1145C65.8497 25.3538 66.3365 25.4779 66.9854 25.4779H75.3026C76.0029 25.4779 76.5066 25.3538 76.8226 25.1145C77.13 24.8752 77.2922 24.5561 77.2922 24.175V11.0488H83.0562V25.0258C83.0562 25.9121 82.9622 26.6655 82.7829 27.2771C82.6036 27.8975 82.2535 28.4736 81.7412 29.0053C81.2032 29.5194 80.7506 29.8917 80.392 30.1221C80.0333 30.3437 79.538 30.5209 78.9061 30.6361C78.2743 30.7514 77.4118 30.8311 76.3017 30.8577C75.1916 30.8932 73.4923 30.9109 71.1953 30.9109C68.9153 30.9109 67.216 30.8932 66.1059 30.8577C64.9873 30.8223 64.1163 30.7514 63.493 30.6361C62.8611 30.5209 62.3572 30.3437 61.9901 30.1132C61.6143 29.8828 61.1617 29.5105 60.6408 29.0142C60.1285 28.4824 59.787 27.9063 59.5991 27.2859C59.4198 26.6655 59.3258 25.921 59.3258 25.0347V11.0577H65.0727V11.0488Z" fill="#1D183B"/>
<path d="M106.787 19.5675C107.236 19.21 107.46 18.7005 107.46 18.0301C107.46 17.4401 107.245 16.9574 106.805 16.573C106.373 16.1976 105.865 16.0009 105.287 16.0009H95.8941V30.9109H89.9774V11.0488H105.718C107.055 11.0488 108.167 11.1472 109.047 11.3527C109.936 11.5583 110.66 11.8891 111.221 12.3539C111.781 12.8187 112.195 13.4444 112.463 14.24C112.73 15.0355 112.859 16.0367 112.859 17.2434C112.859 18.4591 112.756 19.4781 112.549 20.3005C112.342 21.1229 112.005 21.7933 111.557 22.2939C111.108 22.8034 110.505 23.1699 109.763 23.4023C109.013 23.6347 108.073 23.7598 106.951 23.7598V23.8582L114.696 30.9109H108.133L96.7135 20.0949H105.209C105.813 20.0949 106.339 19.9161 106.787 19.5675Z" fill="#1D183B"/>
<path d="M144.36 24.8208C144.36 26.9582 143.896 28.5142 142.977 29.4711C142.057 30.428 140.569 30.9109 138.53 30.9109C136.149 30.9109 130.345 30.9109 121.137 30.9109V26.6094C130.696 26.6094 135.641 26.6094 135.983 26.6094C136.324 26.6094 136.639 26.5915 136.928 26.5557C137.217 26.52 137.479 26.4484 137.725 26.3411C137.97 26.2338 138.162 26.0639 138.311 25.8493C138.46 25.6346 138.53 25.3395 138.53 24.9907C138.53 24.5883 138.425 24.2664 138.223 24.016C138.022 23.7745 137.751 23.5956 137.427 23.4883C137.103 23.381 136.762 23.3095 136.412 23.2826C136.061 23.2558 135.632 23.2469 135.125 23.2469C134.818 23.229 133.943 23.1932 132.508 23.1485C130.258 23.068 128.84 23.0054 128.271 22.9875C127.702 22.9607 127.159 22.9339 126.652 22.9071C126.144 22.8802 125.715 22.8534 125.356 22.8176C123.544 22.7192 122.249 22.1022 121.461 20.9754C120.909 20.1348 120.629 18.8738 120.629 17.2105C120.629 15.1536 121.014 13.6154 121.785 12.587C122.555 11.5586 123.824 11.0488 125.61 11.0488C127.982 11.0488 133.996 11.0488 143.668 11.0488V15.3503C134.109 15.3503 129.164 15.3503 128.822 15.3503C128.498 15.3503 128.201 15.3682 127.938 15.404C127.676 15.4398 127.431 15.5113 127.203 15.6186C126.975 15.726 126.792 15.8959 126.652 16.1105C126.512 16.3341 126.441 16.6202 126.441 16.969C126.441 17.6129 126.66 18.0332 127.107 18.2299C127.553 18.4267 128.157 18.534 128.945 18.534H129.461C129.689 18.534 129.855 18.534 129.952 18.534C130.249 18.5519 131.107 18.5877 132.525 18.6324C134.486 18.7039 135.843 18.7486 136.604 18.7844C137.366 18.8202 138.005 18.847 138.53 18.8738C139.055 18.9006 139.484 18.9275 139.825 18.9633C141.62 19.0616 142.88 19.7413 143.598 20.9843C144.097 22.0038 144.36 23.2826 144.36 24.8208Z" fill="#1D183B"/>
<path d="M155.762 27.5231L153.979 30.9109H147.326L157.869 11.0488H165.553L176 30.9109H169.347L167.581 27.5231H155.762ZM157.939 23.2503H165.378L161.663 16.0993L157.939 23.2503Z" fill="#1D183B"/>
<defs>
<linearGradient id="paint0_linear_2001_22" x1="74.7733" y1="48.8068" x2="0.453637" y2="9.766" gradientUnits="userSpaceOnUse">
<stop offset="0.0418" stop-color="#55519E"/>
<stop offset="0.9253" stop-color="#39A8E0"/>
</linearGradient>
<linearGradient id="paint1_linear_2001_22" x1="56.5" y1="31.3786" x2="-1.18955" y2="-0.143586" gradientUnits="userSpaceOnUse">
<stop offset="0.0418" stop-color="#55519E"/>
<stop offset="0.9253" stop-color="#39A8E0"/>
</linearGradient>
</defs>
</svg>
