<svg width="325" height="67" viewBox="0 0 325 67" fill="none" xmlns="http://www.w3.org/2000/svg">
<path d="M24.6898 42.25V0L4.85094 19.7618C1.74055 22.8506 0 27.0268 0 31.3605V41.4148C0 56.0549 18.0177 63.4932 28.751 53.2656L40 42.5337L24.6898 42.25Z" fill="url(#paint0_linear_2012_131)"/>
<path d="M54.3263 24.4864V67L75.1483 46.1317C77.614 43.6579 79 40.3279 79 36.8551V17.2713C79 5.55267 64.6567 -0.393868 56.1313 7.78854L39 24.2326L54.3263 24.4864Z" fill="url(#paint1_linear_2012_131)"/>
<path d="M119.656 22V45.1303C119.656 45.8019 119.941 46.3641 120.526 46.7858C121.096 47.2075 121.999 47.4261 123.202 47.4261H138.624C139.922 47.4261 140.856 47.2075 141.442 46.7858C142.012 46.3641 142.313 45.8019 142.313 45.1303V22H153V46.6296C153 48.1914 152.826 49.519 152.493 50.5966C152.161 51.6899 151.512 52.705 150.562 53.6421C149.564 54.5479 148.725 55.2039 148.06 55.61C147.395 56.0004 146.477 56.3128 145.305 56.5158C144.134 56.7189 142.534 56.8594 140.476 56.9063C138.418 56.9688 135.267 57 131.008 57C126.781 57 123.63 56.9688 121.571 56.9063C119.497 56.8438 117.882 56.7189 116.727 56.5158C115.555 56.3128 114.621 56.0004 113.94 55.5943C113.243 55.1883 112.404 54.5323 111.438 53.6577C110.488 52.7206 109.855 51.7055 109.507 50.6122C109.174 49.519 109 48.1914 109 46.6452V22.0156H119.656V22Z" fill="#FBFBF9"/>
<path d="M196.602 37.0112C197.418 36.3812 197.827 35.4833 197.827 34.302C197.827 33.2624 197.434 32.4118 196.633 31.7345C195.848 31.0729 194.922 30.7263 193.87 30.7263H176.771V57H166V22H194.655C197.089 22 199.114 22.1733 200.716 22.5355C202.333 22.8978 203.652 23.4806 204.672 24.2997C205.693 25.1188 206.447 26.2214 206.933 27.6233C207.42 29.0252 207.656 30.7894 207.656 32.9158C207.656 35.058 207.467 36.8537 207.09 38.3029C206.714 39.752 206.101 40.9334 205.285 41.8155C204.468 42.7133 203.369 43.3591 202.019 43.7687C200.653 44.1782 198.941 44.3987 196.9 44.3987V44.572L211 57H199.067L178.278 37.9406H193.744C194.828 37.9406 195.785 37.6256 196.602 37.0112Z" fill="#FBFBF9"/>
<path d="M265 46.2684C265 50.0347 264.16 52.7767 262.495 54.4628C260.83 56.149 258.135 57 254.44 57C250.128 57 239.615 57 222.935 57V49.4201C240.25 49.4201 249.208 49.4201 249.826 49.4201C250.445 49.4201 251.015 49.3886 251.539 49.3255C252.062 49.2625 252.538 49.1364 252.982 48.9473C253.426 48.7582 253.774 48.4588 254.044 48.0806C254.313 47.7024 254.44 47.1824 254.44 46.5678C254.44 45.8586 254.25 45.2913 253.885 44.85C253.521 44.4246 253.029 44.1094 252.442 43.9203C251.856 43.7312 251.237 43.6051 250.603 43.5579C249.969 43.5106 249.192 43.4948 248.272 43.4948C247.718 43.4633 246.132 43.4002 243.516 43.3215C239.441 43.1796 236.872 43.0693 235.842 43.0378C234.811 42.9905 233.828 42.9433 232.909 42.896C231.989 42.8487 231.212 42.8014 230.562 42.7384C227.28 42.565 224.933 41.4777 223.506 39.4921C222.507 38.0108 222 35.7888 222 32.8577C222 29.2332 222.698 26.5227 224.093 24.7105C225.488 22.8982 227.787 22 231.022 22C235.319 22 246.211 22 263.732 22V29.58C246.417 29.58 237.459 29.58 236.841 29.58C236.254 29.58 235.715 29.6115 235.239 29.6745C234.764 29.7375 234.32 29.8636 233.907 30.0527C233.495 30.2418 233.162 30.5412 232.909 30.9194C232.655 31.3134 232.528 31.8177 232.528 32.4323C232.528 33.5669 232.924 34.3075 233.733 34.6542C234.526 35.0166 235.636 35.19 237.063 35.19H237.998C238.41 35.19 238.712 35.19 238.886 35.19C239.425 35.2215 240.979 35.2846 243.548 35.3634C247.099 35.4894 249.557 35.5682 250.936 35.6313C252.316 35.6943 253.473 35.7415 254.424 35.7888C255.376 35.8361 256.153 35.8834 256.771 35.9464C260.021 36.1198 262.305 37.3174 263.605 39.5079C264.54 41.3044 265 43.5579 265 46.2684Z" fill="#FBFBF9"/>
<path d="M288.299 51.0301L285.065 57H273L292.12 22H306.055L325 57H312.935L309.733 51.0301H288.299ZM292.246 43.5167H305.738L299 30.9154L292.246 43.5167Z" fill="#FBFBF9"/>
<defs>
<linearGradient id="paint0_linear_2012_131" x1="137.49" y1="89.0658" x2="1.27313" y2="16.9709" gradientUnits="userSpaceOnUse">
<stop offset="0.0418" stop-color="#55519E"/>
<stop offset="0.9253" stop-color="#39A8E0"/>
</linearGradient>
<linearGradient id="paint1_linear_2012_131" x1="104.722" y1="58.613" x2="-0.650628" y2="0.199534" gradientUnits="userSpaceOnUse">
<stop offset="0.0418" stop-color="#55519E"/>
<stop offset="0.9253" stop-color="#39A8E0"/>
</linearGradient>
</defs>
</svg>
