<svg width="20" height="20" viewBox="0 0 20 20" fill="none" xmlns="http://www.w3.org/2000/svg">
<mask id="mask0_272_3279" style="mask-type:alpha" maskUnits="userSpaceOnUse" x="0" y="0" width="20" height="20">
<circle cx="10" cy="10" r="10" fill="#D9D9D9"/>
</mask>
<g mask="url(#mask0_272_3279)">
<path fill-rule="evenodd" clip-rule="evenodd" d="M-3 0H23V20H-3V0Z" fill="#E30A17"/>
<path fill-rule="evenodd" clip-rule="evenodd" d="M13.5343 10.3122C13.5343 13.0706 11.3162 15.3081 8.57808 15.3081C5.83995 15.3081 3.62183 13.0706 3.62183 10.3081C3.62183 7.54557 5.83995 5.31641 8.57808 5.31641C11.3162 5.31641 13.5343 7.55391 13.5343 10.3122Z" fill="white"/>
<path fill-rule="evenodd" clip-rule="evenodd" d="M13.7781 10.3122C13.7781 12.5206 12.0069 14.3081 9.81717 14.3081C7.62749 14.3081 5.85217 12.5164 5.85217 10.3081C5.85217 8.09974 7.62749 6.31641 9.81717 6.31641C12.0069 6.31641 13.7822 8.10391 13.7822 10.3122H13.7781Z" fill="#E30A17"/>
<path fill-rule="evenodd" clip-rule="evenodd" d="M14.4972 7.97878L14.4566 9.82461L12.7788 10.2913L14.4363 10.8954L14.3957 12.5913L15.4722 11.2663L17.1054 11.8496L16.1629 10.4288L17.3126 9.01628L15.5454 9.51628L14.4972 7.97461V7.97878Z" fill="white"/>
</g>
</svg>
